HIERARCHY
ROOT Hips
{
	OFFSET	4.6131	89.0899	-119.084
	CHANNELS 6 Xposition Yposition Zposition Zrotation Xrotation Yrotation
	JOINT Chest
	{
		OFFSET	0	16.383	0
		CHANNELS 3 Zrotation Xrotation Yrotation
		JOINT LeftCollar
		{
			OFFSET	3.81	32.766	-3.81
			CHANNELS 3 Zrotation Xrotation Yrotation
			JOINT LeftUpArm
			{
				OFFSET	14.5367	0	3.8951
				CHANNELS 3 Zrotation Xrotation Yrotation
				JOINT LeftLowArm
				{
					OFFSET	30.2895	0	0
					CHANNELS 3 Zrotation Xrotation Yrotation
					JOINT LeftHand
					{
						OFFSET	27.2415	0	0
						CHANNELS 3 Zrotation Xrotation Yrotation
						End Site
						{
							OFFSET	20.3835	0	0
						}
					}
				}
			}
		}
		JOINT Neck
		{
			OFFSET	0	32.766	0
			CHANNELS 3 Zrotation Xrotation Yrotation
			JOINT Head
			{
				OFFSET	0	19.6215	0
				CHANNELS 3 Zrotation Xrotation Yrotation
				End Site
				{
					OFFSET	0	0	10.16
				}
			}
		}
		JOINT RightCollar
		{
			OFFSET	-3.81	32.766	-3.81
			CHANNELS 3 Zrotation Xrotation Yrotation
			JOINT RightUpArm
			{
				OFFSET	-14.5367	0	3.8951
				CHANNELS 3 Zrotation Xrotation Yrotation
				JOINT RightLowArm
				{
					OFFSET	-30.2895	0	0
					CHANNELS 3 Zrotation Xrotation Yrotation
					JOINT RightHand
					{
						OFFSET	-27.2415	0	0
						CHANNELS 3 Zrotation Xrotation Yrotation
						End Site
						{
							OFFSET	-20.3835	0	0
						}
					}
				}
			}
		}
	}
	JOINT LeftUpLeg
	{
		OFFSET	9.3345	0	0
		CHANNELS 3 Zrotation Xrotation Yrotation
		JOINT LeftLowLeg
		{
			OFFSET	0	-45.5295	0
			CHANNELS 3 Zrotation Xrotation Yrotation
			JOINT LeftFoot
			{
				OFFSET	0	-44.196	0
				CHANNELS 3 Zrotation Xrotation Yrotation
				End Site
				{
					OFFSET	0	0	26.4795
				}
			}
		}
	}
	JOINT RightUpLeg
	{
		OFFSET	-9.3345	0	0
		CHANNELS 3 Zrotation Xrotation Yrotation
		JOINT RightLowLeg
		{
			OFFSET	0	-45.5295	0
			CHANNELS 3 Zrotation Xrotation Yrotation
			JOINT RightFoot
			{
				OFFSET	0	-44.196	0
				CHANNELS 3 Zrotation Xrotation Yrotation
				End Site
				{
					OFFSET	0	0	26.4795
				}
			}
		}
	}
}
MOTION
Frames:	8
Frame Time:	0.0166667
4.6131	89.0899	-119.084	-1.34304	-2.7315	3.82936	1.77017	2.85446	2.72959	-9.10212	-0.0479819	-12.2508	-20.656	-4.26764	-40.5484	-2.98027	19.5739	-28.5557	-29.1014	35.3086	1.53575	-2.95315	-2.16879	-0.204847	-3.05821	-2.08937	-0.310206	4.87692	2.28726	20.0722	20.8926	-7.40787	9.62317	0.453707	13.837	66.6672	22.4636	2.76349	-20.0082	4.16437	-1.38197	2.4148	-2.07725	14.4015	-3.73606	-0.154784	-9.51172	5.37775	-11.1373	-14.7505	-6.27478	8.82001	35.556	-7.9836	0.176172	-8.67967	-9.77331	
4.6611	89.103	-118.749	-1.55678	-2.1287	3.80453	1.81406	2.34177	2.55684	-8.81499	-0.241702	-12.8392	-19.3893	-5.16083	-40.9642	-4.23365	19.318	-27.5065	-26.2005	36.5343	0.751968	-3.14908	-2.2599	0.0841655	-3.2795	-2.1401	-0.123086	5.06387	1.88556	20.3054	20.3391	-7.11661	9.86979	-2.25089	12.4747	68.7929	23.3682	2.62403	-20.2925	4.28792	-1.84149	2.53841	-1.99831	14.3461	-3.77684	-0.16607	-9.51151	5.31974	-10.896	-15.5774	-5.86172	9.08742	35.2192	-9.167	0.351816	-8.94646	-9.8094	
4.706	89.1278	-118.56	-1.62477	-1.8305	3.78643	1.73069	2.13221	2.28368	-8.4252	-0.420044	-13.2886	-16.9792	-5.83346	-41.9806	-1.62635	19.023	-27.8603	-26.9983	34.1737	-1.23326	-3.46319	-2.39469	0.179757	-3.60156	-2.2789	-0.117293	5.20369	1.74945	20.6106	17.0014	-7.05753	12.1182	-0.757469	10.8102	67.7685	24.4155	2.19018	-20.395	4.32089	-1.74623	2.64943	-1.9684	14.0014	-3.85201	-0.162582	-9.49813	5.2958	-10.7457	-15.9132	-5.70563	9.09694	34.7512	-9.91366	0.917497	-9.28685	-9.94515	
4.7365	89.1494	-118.213	-1.80311	-0.928121	3.64278	1.81767	1.23503	2.38475	-8.25871	-0.472577	-13.6443	-15.533	-6.22633	-42.5681	-0.776879	18.0025	-27.7939	-27.7467	33.5242	-1.72982	-4.05523	-2.4892	-0.115809	-4.08527	-2.47319	-0.18237	5.46639	1.18374	20.6388	16.597	-6.42325	12.1887	-1.95878	9.74092	68.7149	25.1986	1.8579	-20.4057	4.45252	-2.43233	2.83035	-1.96043	13.8996	-3.77664	-0.204168	-9.47787	5.20525	-10.6527	-16.7793	-5.77694	8.89067	31.8907	-10.7897	1.36427	-7.12722	-9.30211	
4.7317	89.1623	-117.982	-1.98825	-0.132361	3.43711	1.01593	-0.0286907	1.4562	-7.22925	-0.212319	-12.6489	-15.2305	-6.36844	-42.5944	1.17795	17.0617	-28.5776	-25.6882	33.4432	-2.87346	-3.45401	-2.22945	0.855748	-4.45395	-2.57996	-0.334439	6.51783	1.50004	21.7007	12.0043	-5.56584	14.6099	1.84695	7.48827	66.4375	25.952	1.30798	-20.5357	4.66984	-3.02966	3.03094	-2.0743	13.8912	-3.60558	-0.225955	-9.54735	5.08664	-10.8105	-17.5328	-6.5707	8.5759	29.1869	-10.301	1.71479	-5.36938	-9.05928	
4.7147	89.1645	-117.728	-2.11924	0.465662	3.22471	1.09891	-0.610066	1.58779	-7.00111	-0.304403	-13.612	-13.1007	-7.86051	-43.3982	0.126522	15.2664	-27.2843	-26.0672	32.93	-3.45383	-4.28354	-2.57479	0.157159	-4.30134	-2.5484	0.0665658	6.44194	1.09684	21.7276	10.1612	-5.11126	15.6911	2.54926	5.70492	66.1616	25.383	1.55533	-19.722	4.79563	-3.50072	3.23815	-2.31144	13.7987	-3.65533	-0.0577929	-9.38177	5.21748	-10.9522	-18.5327	-7.00251	8.44258	27.5174	-9.96131	2.1904	-4.79111	-8.97422	
4.8598	89.182	-117.671	-2.28923	1.09061	2.88892	1.22003	-0.908892	1.22465	-7.15692	-0.842643	-13.5597	-12.3927	-8.85946	-43.6584	-0.095888	14.7193	-26.7243	-25.7234	32.6087	-4.05918	-4.5881	-3.09034	0.578742	-4.63476	-2.7063	-0.107119	6.27368	0.404639	22.3805	8.86355	-4.85877	16.7402	2.05116	3.02962	66.5197	26.5696	0.595349	-19.4302	4.96166	-3.91342	3.35092	-2.41456	13.6062	-3.43563	-0.0680433	-9.20198	5.25127	-10.9136	-19.7634	-7.10604	8.3521	25.8766	-9.70287	2.54584	-4.22142	-8.87647	
4.8787	89.2111	-117.572	-2.56723	1.63046	2.49131	1.50177	-1.22216	1.34881	-7.24163	-1.01232	-13.5965	-11.9594	-10.0676	-44.2765	0.825354	12.8346	-26.6086	-28.1545	33.2453	-3.55382	-4.82563	-3.24565	0.320915	-4.81374	-2.9931	0.0470642	6.08984	-0.085685	22.5821	8.25717	-4.75884	17.4472	2.1892	1.70507	66.4214	27.0932	0.454305	-19.2471	5.24698	-4.00804	3.10129	-2.69197	13.0708	-3.07135	0.0435541	-8.97176	5.58808	-10.5511	-20.7606	-6.87633	8.28851	24.0121	-9.45312	2.81388	-3.68569	-8.96028	
